<?xml version="1.0" standalone="no"?>
<!DOCTYPE svg PUBLIC "-//W3C//DTD SVG 20010904//EN"
 "http://www.w3.org/TR/2001/REC-SVG-20010904/DTD/svg10.dtd">
<svg version="1.0" xmlns="http://www.w3.org/2000/svg"
 width="420pt" height="200pt" viewBox="0 0 1920.000000 548.000000"
 preserveAspectRatio="xMidYMid meet">
 <style>
 	.blue {
 	fill: #0669c9;
 	}
 	.black {
 	fill: #444444;
 	}
 </style>

<g transform="translate(0.000000,548.000000) scale(0.100000,-0.100000)"
fill="#000000" stroke="none">
<path class="blue" d="M6986 4622 l-1499 -606 -16 24 c-285 433 -630 692 -1043 782 -89 19
-133 22 -313 22 -304 0 -271 7 -1525 -308 -388 -98 -706 -178 -707 -179 -3 -4
577 -2308 583 -2316 3 -3 6003 3167 6019 3181 5 4 7 8 5 7 -3 0 -680 -273
-1504 -607z m-2761 -562 c96 -30 191 -81 267 -145 69 -56 195 -213 181 -225
-12 -10 -1555 -642 -1572 -644 -11 -1 -41 105 -117 409 -56 225 -101 411 -99
414 10 9 654 164 775 186 192 35 180 34 345 30 121 -2 164 -7 220 -25z"/>
<path class="blue" d="M11852 3949 c-299 -29 -595 -203 -761 -447 -219 -323 -247 -707 -77
-1057 65 -133 125 -214 238 -320 132 -124 300 -214 475 -253 57 -12 120 -17
233 -16 199 0 290 21 457 104 286 142 475 371 561 680 24 85 27 112 26 255 0
130 -4 176 -21 245 -49 194 -140 357 -277 499 -183 188 -392 288 -650 311 -61
5 -113 9 -116 9 -3 -1 -42 -5 -88 -10z m247 -526 c70 -19 146 -68 199 -128
204 -232 161 -698 -81 -858 -77 -52 -128 -68 -227 -74 -239 -15 -418 121 -480
363 -24 95 -26 251 -5 343 68 287 312 433 594 354z"/>
<path class="blue" d="M6990 2906 l0 -1036 458 0 c494 0 564 5 715 55 422 137 667 500 667
986 0 306 -114 593 -308 770 -115 106 -259 182 -432 230 -83 22 -98 23 -592
27 l-508 3 0 -1035z m944 514 c136 -42 239 -155 289 -315 26 -84 30 -276 8
-365 -38 -155 -129 -271 -258 -333 -67 -31 -71 -32 -240 -35 l-173 -4 0 536 0
536 154 0 c127 0 166 -4 220 -20z"/>
<path class="blue" d="M9070 2905 l0 -1035 290 0 290 0 0 315 0 316 106 -3 105 -3 179 -310
178 -310 322 -3 c280 -2 322 0 317 12 -3 9 -100 179 -216 380 l-209 365 54 46
c98 84 181 222 220 366 24 88 24 262 0 348 -58 212 -198 390 -378 480 -144 72
-138 71 -730 71 l-528 0 0 -1035z m985 513 c59 -40 80 -83 84 -171 4 -87 -9
-144 -41 -188 -39 -53 -68 -59 -267 -59 l-181 0 0 220 0 220 187 0 c175 0 189
-1 218 -22z"/>
<path class="blue" d="M13250 2905 l0 -1035 285 0 285 0 2 504 3 504 405 -501 405 -502 233
-3 232 -2 0 1035 0 1035 -290 0 -290 0 -2 -517 -3 -518 -408 518 -409 517
-224 0 -224 0 0 -1035z"/>
<path class="blue" d="M15450 2905 l0 -1035 740 0 740 0 0 250 0 250 -455 0 -455 0 0 160 0
160 375 0 375 0 0 235 0 235 -375 0 -375 0 0 140 0 140 440 0 440 0 0 250 0
250 -725 0 -725 0 0 -1035z"/>
<path class="blue" d="M17003 3926 c3 -7 161 -319 351 -692 l346 -679 0 -342 0 -343 285 0
285 0 0 344 0 345 355 688 355 688 -307 3 c-169 1 -310 -1 -314 -5 -4 -5 -89
-203 -190 -441 -100 -238 -186 -429 -190 -425 -4 5 -87 203 -185 441 l-178
432 -309 0 c-259 0 -308 -2 -304 -14z"/>
<path class="black" d="M5355 3194 c-214 -113 -391 -206 -392 -207 -1 -1 10 -47 23 -102 69
-283 102 -581 85 -768 -36 -378 -199 -578 -582 -712 -100 -35 -919 -248 -927
-241 -1 2 -57 217 -123 477 -66 261 -122 475 -124 477 -4 5 -753 -385 -775
-403 -8 -7 -556 -309 -1217 -671 -662 -362 -1202 -659 -1200 -660 1 -1 576
172 1277 385 1077 327 1276 385 1282 372 4 -9 55 -207 114 -441 59 -234 110
-429 115 -434 10 -11 1651 402 1826 460 325 107 575 254 764 451 205 212 337
497 405 868 22 121 30 471 15 618 -13 121 -59 366 -92 487 -37 137 -72 250
-78 249 -3 0 -181 -92 -396 -205z"/>
<path class="black" d="M14730 1540 c-160 -19 -260 -123 -260 -270 0 -79 20 -122 78 -167 41
-31 71 -42 268 -102 123 -37 164 -69 164 -126 0 -51 -15 -74 -63 -96 -89 -40
-241 -16 -361 56 -32 19 -60 34 -61 33 -1 -2 -16 -29 -32 -61 l-31 -57 25 -20
c39 -30 121 -68 188 -85 76 -20 244 -21 306 -2 140 43 216 172 180 307 -26 95
-88 143 -241 185 -182 51 -218 65 -245 96 -47 57 -23 134 51 165 78 32 220 9
308 -51 l35 -24 31 56 c16 31 30 60 30 64 0 12 -83 57 -145 77 -71 23 -149 31
-225 22z"/>
<path class="black" d="M16327 1539 c-231 -27 -411 -286 -368 -529 27 -148 122 -280 249
-342 81 -40 205 -50 294 -24 123 35 239 145 289 274 19 47 23 76 23 167 0 131
-19 192 -92 288 -99 128 -233 185 -395 166z m185 -162 c60 -35 92 -72 125
-142 24 -52 28 -72 28 -150 0 -82 -3 -97 -33 -157 -76 -155 -230 -209 -373
-131 -178 96 -209 387 -58 534 62 60 114 80 201 75 49 -2 78 -10 110 -29z"/>
<path class="black" d="M15190 1475 l0 -65 150 0 150 0 0 -390 0 -390 75 0 75 0 0 390 0 390
150 0 151 0 -3 63 -3 62 -372 3 -373 2 0 -65z"/>
<path class="black" d="M16967 1534 c-4 -4 -7 -209 -7 -456 l0 -448 75 0 75 0 0 155 0 155
103 0 104 0 95 -152 95 -153 81 -3 c45 -2 82 0 82 4 0 4 -46 81 -102 172 -67
109 -98 167 -90 170 39 13 100 74 127 127 26 50 30 70 30 134 0 123 -55 213
-168 273 -39 21 -56 23 -267 26 -124 2 -228 0 -233 -4z m433 -146 c52 -26 90
-89 90 -148 0 -45 -37 -118 -73 -144 -25 -18 -46 -21 -168 -24 l-139 -4 0 171
0 171 123 0 c107 0 128 -3 167 -22z"/>
<path class="black" d="M17800 1085 l0 -455 310 0 310 0 0 65 0 65 -235 0 -235 0 0 135 0
135 200 0 200 0 0 60 0 60 -200 0 -200 0 0 130 0 130 230 0 230 0 0 65 0 65
-305 0 -305 0 0 -455z"/>
</g>
</svg>
